<svg xmlns="http://www.w3.org/2000/svg" xmlns:xlink="http://www.w3.org/1999/xlink" x="0px" y="0px"
	 width="925.1px" height="925.099px" viewBox="0 0 925.1 925.099" style="enable-background:new 0 0 925.1 925.099;"
	 xml:space="preserve">
<g>
	<g>
		<path d="M685.301,508.9c0,13.7,11.1,24.8,24.699,24.8v4.2c-29.4,3.8-57.199,14.4-81.6,30.9l-11.5-11.5c-2.301-2.3-5.4-3.5-8.5-3.5
			s-6.1,1.2-8.5,3.5L563.6,593.6c-4.699,4.7-4.699,12.2,0,16.9l11.801,11.8c-20.201,30.7-31,66.6-31,104.2
			c0,50.8,19.799,98.6,55.699,134.5C636,896.9,683.801,916.7,734.6,916.7c50.801,0,98.9-19.6,134.801-55.6
			c35.9-35.9,55.699-83.7,55.699-134.5S905.301,628,869.4,592.1c-30-30-68.301-48.8-109.701-54.1v-4.2
			C773.4,533.7,784.4,522.6,784.4,509c0-13.7-11.1-24.801-24.801-24.801h-49.4C696.5,484.1,685.301,495.2,685.301,508.9z
			 M734.9,577.5c82.4,0,149.1,66.8,149.1,149.1c0,82.4-66.801,149.1-149.1,149.1c-82.301,0-149.1-66.8-149.1-149.1
			S652.5,577.5,734.9,577.5z"/>
		<path d="M745.4,856.9c66.4-6.3,118.4-62.2,118.4-130.2s-52-124-118.4-130.199c-4.9-0.5-9.301,2.199-11.301,6.3
			c-0.699,1.5-1.1,3.1-1.1,4.899v237.9c0,1.7,0.4,3.4,1.1,4.9C736,854.6,740.5,857.3,745.4,856.9z"/>
		<path d="M59.8,652.3h179.4v199.3c0,33,26.8,59.8,59.8,59.8c33,0,59.8-26.8,59.8-59.8V592.5c0-33-26.8-59.801-59.8-59.801H122.1
			c7.3-85.899,43.6-188.6,110.9-246.1l50.2,104.5l0.101-0.1c6.6,13.1,19.899,22.1,35.5,22.1H518.1c22,0,39.9-17.9,39.9-39.9
			S540.1,333.3,518.1,333.3H362.4C344.9,297.1,327.5,260.8,310,224.6c-7.9-16.4-14.301-36.8-26.5-50.6
			c-11.2-12.7-27.5-20.1-44.4-20.1c-9.6,0-18.6,2.5-26.6,6.5l-0.1-0.2C75.4,228.7,0,382.2,0,592.3C0,625.5,26.8,652.3,59.8,652.3z"
			/>
		<circle cx="372.1" cy="96" r="87.6"/>
		<path d="M654.699,321.7L603.9,455H449.5c-13.801,0-25,11.199-25,25c0,13.8,11.199,25,25,25h171.699c10.4,0,19.701-6.4,23.4-16.101
			l56.9-149.4c4.9-12.9-1.6-27.3-14.5-32.3C674.1,302.3,659.6,308.8,654.699,321.7z"/>
	</g>
</g>
<g>
</g>
<g>
</g>
<g>
</g>
<g>
</g>
<g>
</g>
<g>
</g>
<g>
</g>
<g>
</g>
<g>
</g>
<g>
</g>
<g>
</g>
<g>
</g>
<g>
</g>
<g>
</g>
<g>
</g>
</svg>
